<svg id="58a6a912-2362-4743-be63-29175d9d8374" data-name="Layer 1" xmlns="http://www.w3.org/2000/svg" viewBox="0 0 162.10708 28"><defs><style>.d053a5eb-f548-4361-a7be-8e63fc88c602{fill:#fff;}</style></defs><title>typingdna-logo-white</title><path class="d053a5eb-f548-4361-a7be-8e63fc88c602" d="M4.92455,7.17054H12.511a1.04073,1.04073,0,0,1,.71537.19963.67079.67079,0,0,1,.21629.51577.65157.65157,0,0,1-.21629.49911,1.04089,1.04089,0,0,1-.71537.19963H4.92455v9.30005a2.54282,2.54282,0,0,0,.97327,2.02973,4.343,4.343,0,0,0,2.85321.81519,12.323,12.323,0,0,0,3.0612-.42422,10.35837,10.35837,0,0,0,2.56209-.95664,1.09232,1.09232,0,0,1,.549-.21626.62692.62692,0,0,1,.46586.208.68557.68557,0,0,1,.19963.49078.65213.65213,0,0,1-.21629.46583,6.95365,6.95365,0,0,1-2.587,1.18953,13.219,13.219,0,0,1-3.93463.64054,6.09272,6.09272,0,0,1-3.893-1.14795,3.74313,3.74313,0,0,1-1.44743-3.09449V8.58468H.93166A1.04041,1.04041,0,0,1,.21629,8.385.66954.66954,0,0,1,0,7.86928a.65074.65074,0,0,1,.21629-.49911,1.04025,1.04025,0,0,1,.71537-.19963H3.51041v-4.126A1.04082,1.04082,0,0,1,3.71,2.32918a.65168.65168,0,0,1,.49911-.21629.67079.67079,0,0,1,.51574.21629,1.04082,1.04082,0,0,1,.19966.7154Z"/><path class="d053a5eb-f548-4361-a7be-8e63fc88c602" d="M22.813,21.57815,16.3246,8.58468h-.41592a1.04045,1.04045,0,0,1-.7154-.19963.65074.65074,0,0,1-.21629-.49911.72666.72666,0,0,1,.10814-.391A.61261.61261,0,0,1,15.368,7.2454a1.457,1.457,0,0,1,.54072-.07486h3.82648a1.04077,1.04077,0,0,1,.7154.19963.6709.6709,0,0,1,.21629.51577.65168.65168,0,0,1-.21629.49911,1.04093,1.04093,0,0,1-.7154.19963h-1.88l5.70648,11.46288L29.185,8.58468h-1.88a1.0405,1.0405,0,0,1-.7154-.19963.66954.66954,0,0,1-.21629-.51577.65074.65074,0,0,1,.21629-.49911,1.04034,1.04034,0,0,1,.7154-.19963h3.80985a1.07089,1.07089,0,0,1,.732.19963.69763.69763,0,0,1,.08319.915.63832.63832,0,0,1-.29948.24124,4.10527,4.10527,0,0,1-.93166.05824L21.848,26.60251H24.0275a1.07225,1.07225,0,0,1,.7154.19133.64448.64448,0,0,1,.21626.50741.65161.65161,0,0,1-.21626.49911A1.04082,1.04082,0,0,1,24.0275,28H15.97521a1.07335,1.07335,0,0,1-.7154-.1913.70344.70344,0,0,1,0-1.01485,1.07181,1.07181,0,0,1,.7154-.19133h4.37553Z"/><path class="d053a5eb-f548-4361-a7be-8e63fc88c602" d="M37.90271,7.17054V9.716a9.046,9.046,0,0,1,2.67856-2.27927,7.06252,7.06252,0,0,1,3.37731-.76531,7.75233,7.75233,0,0,1,3.80985.96494A6.77838,6.77838,0,0,1,50.472,10.32323a7.34626,7.34626,0,0,1,.95661,3.61855,6.99155,6.99155,0,0,1-2.15447,5.14914,7.60394,7.60394,0,0,1-11.37139-.9067v8.4183h3.394a1.07216,1.07216,0,0,1,.71537.19133.64441.64441,0,0,1,.21629.50741.65153.65153,0,0,1-.21629.49911A1.04073,1.04073,0,0,1,41.29668,28H34.62525a1.0733,1.0733,0,0,1-.7154-.1913.70337.70337,0,0,1,0-1.01485,1.07175,1.07175,0,0,1,.7154-.19133h1.88V8.58468h-1.88a1.0405,1.0405,0,0,1-.7154-.19963.66954.66954,0,0,1-.21629-.51577.65074.65074,0,0,1,.21629-.49911,1.04034,1.04034,0,0,1,.7154-.19963Zm12.11171,6.77124a5.58581,5.58581,0,0,0-1.7552-4.13429,6.21035,6.21035,0,0,0-8.593.00833,5.72781,5.72781,0,0,0,0,8.26858,6.2,6.2,0,0,0,8.58468.0083A5.59153,5.59153,0,0,0,50.01443,13.94178Z"/><path class="d053a5eb-f548-4361-a7be-8e63fc88c602" d="M60.09644,7.17054V20.18063h5.4902a1.10519,1.10519,0,0,1,.732.19133.69371.69371,0,0,1,0,1.00655,1.07089,1.07089,0,0,1-.732.19963H53.20873a1.0404,1.0404,0,0,1-.7154-.19963.69371.69371,0,0,1,0-1.00655,1.07334,1.07334,0,0,1,.7154-.19133h5.4902V8.58468H54.62287a1.07513,1.07513,0,0,1-.7237-.19963.64009.64009,0,0,1-.22462-.49911.67.67,0,0,1,.21629-.51577,1.07,1.07,0,0,1,.732-.19963ZM60.04654,0V3.61022h-2.063V0Z"/><path class="d053a5eb-f548-4361-a7be-8e63fc88c602" d="M71.84466,7.17054V9.28343a10.085,10.085,0,0,1,2.64528-2.04635,6.08828,6.08828,0,0,1,2.66191-.56565,6.22587,6.22587,0,0,1,2.91145.68212A4.78,4.78,0,0,1,81.752,9.00893a4.28041,4.28041,0,0,1,.757,2.37076v8.80094h1.18123a1.07369,1.07369,0,0,1,.71537.19133.69364.69364,0,0,1,0,1.00655,1.04073,1.04073,0,0,1-.71537.19963H79.94685a1.07,1.07,0,0,1-.732-.19963.69364.69364,0,0,1,0-1.00655,1.10424,1.10424,0,0,1,.732-.19133h1.16457v-8.568A3.31482,3.31482,0,0,0,80.03,9.10875a4.03987,4.03987,0,0,0-2.89485-1.02318,4.90185,4.90185,0,0,0-2.39571.55735A12.85534,12.85534,0,0,0,71.84466,11.413v8.76766h1.58049a1.07373,1.07373,0,0,1,.7154.19133.69364.69364,0,0,1,0,1.00655,1.04077,1.04077,0,0,1-.7154.19963H68.86664a1.04034,1.04034,0,0,1-.7154-.19963.69364.69364,0,0,1,0-1.00655,1.07329,1.07329,0,0,1,.7154-.19133h1.58049V8.58468H69.26591a1.04041,1.04041,0,0,1-.71537-.19963.66954.66954,0,0,1-.21629-.51577.65074.65074,0,0,1,.21629-.49911,1.04025,1.04025,0,0,1,.71537-.19963Z"/><path class="d053a5eb-f548-4361-a7be-8e63fc88c602" d="M97.9648,9.73263V7.17054h3.27749a1.04082,1.04082,0,0,1,.7154.19963.67087.67087,0,0,1,.21626.51577.65165.65165,0,0,1-.21626.49911,1.041,1.041,0,0,1-.7154.19963h-1.88v13.9584a5.12607,5.12607,0,0,1-.59893,2.49556,5.53859,5.53859,0,0,1-1.331,1.514,7.24151,7.24151,0,0,1-1.697,1.11467A5.21823,5.21823,0,0,1,93.68912,28H89.72951a1.07321,1.07321,0,0,1-.71537-.1913.64442.64442,0,0,1-.21629-.50744.66952.66952,0,0,1,.21629-.51574,1.04025,1.04025,0,0,1,.71537-.19966l4.00952.01666a4.0403,4.0403,0,0,0,2.221-.63221,4.82624,4.82624,0,0,0,1.63873-1.84669,3.823,3.823,0,0,0,.366-1.78016V18.15093a6.874,6.874,0,0,1-5.78964,3.07783A6.70456,6.70456,0,0,1,87.209,19.09092a7.10286,7.10286,0,0,1-2.088-5.14914A7.07587,7.07587,0,0,1,87.209,8.801a6.71762,6.71762,0,0,1,4.96613-2.12954A6.88542,6.88542,0,0,1,97.9648,9.73263Zm0,4.20915a5.671,5.671,0,0,0-1.68864-4.15924,5.62485,5.62485,0,0,0-8.06062.00833,5.692,5.692,0,0,0-1.68034,4.15091,5.71144,5.71144,0,0,0,1.68034,4.16757,5.61534,5.61534,0,0,0,8.06062,0A5.69815,5.69815,0,0,0,97.9648,13.94178Z"/><path class="d053a5eb-f548-4361-a7be-8e63fc88c602" d="M120.58539,0V18.16756h.5823a2.602,2.602,0,0,1,1.74684.47416,1.69883,1.69883,0,0,1,.00833,2.46228,2.59713,2.59713,0,0,1-1.75517.47416H117.1748V20.7463a10.08563,10.08563,0,0,1-2.43732,1.03147,9.91707,9.91707,0,0,1-2.637.34939,8.63182,8.63182,0,0,1-6.18894-2.221,7.30569,7.30569,0,0,1-2.3458-5.53181A8.02016,8.02016,0,0,1,106.028,8.46821a8.20021,8.20021,0,0,1,6.006-2.44562,8.56933,8.56933,0,0,1,2.612.40759A10.39687,10.39687,0,0,1,117.1748,7.653V3.41059h-.5823a2.59664,2.59664,0,0,1-1.75517-.47416,1.57365,1.57365,0,0,1-.52407-1.22281,1.593,1.593,0,0,1,.52407-1.23947A2.59664,2.59664,0,0,1,116.59249,0ZM117.1748,14.47417a4.839,4.839,0,0,0-1.48068-3.577,5.20378,5.20378,0,0,0-7.23707,0,4.7803,4.7803,0,0,0-1.48071,3.52706,3.97769,3.97769,0,0,0,1.331,3.08616,6.46358,6.46358,0,0,0,7.51992,0A3.90114,3.90114,0,0,0,117.1748,14.47417Z"/><path class="d053a5eb-f548-4361-a7be-8e63fc88c602" d="M130.46786,6.47179V7.61974a6.462,6.462,0,0,1,2.05462-1.19786,7.22542,7.22542,0,0,1,2.43735-.3993,6.25314,6.25314,0,0,1,4.79142,1.88,5.52309,5.52309,0,0,1,1.39749,3.92633v6.33866a2.30053,2.30053,0,0,1,1.59718.47416,1.60584,1.60584,0,0,1,.51574,1.23947,1.57375,1.57375,0,0,1-.52407,1.22281,2.59721,2.59721,0,0,1-1.75523.47416h-3.07783a2.5967,2.5967,0,0,1-1.75517-.47416,1.71765,1.71765,0,0,1-.00833-2.46228,2.29969,2.29969,0,0,1,1.59718-.47416V11.72907a2.04025,2.04025,0,0,0-.599-1.63043,3.54622,3.54622,0,0,0-2.3458-.66549,4.471,4.471,0,0,0-2.07134.45753,9.2495,9.2495,0,0,0-2.25425,1.93821v6.33866a3.64531,3.64531,0,0,1,1.69694.24957,1.61326,1.61326,0,0,1,.81519,1.46405,1.5737,1.5737,0,0,1-.524,1.22281,2.59731,2.59731,0,0,1-1.75523.47416h-3.87642a2.59659,2.59659,0,0,1-1.75517-.47416,1.59244,1.59244,0,0,1-.52407-1.23944,1.6306,1.6306,0,0,1,.79859-1.44743,3.76147,3.76147,0,0,1,1.71359-.24957V9.88235a2.27225,2.27225,0,0,1-1.59718-.48246,1.61129,1.61129,0,0,1-.51574-1.23114,1.57371,1.57371,0,0,1,.52407-1.22281,2.59677,2.59677,0,0,1,1.75523-.47416Z"/><path class="d053a5eb-f548-4361-a7be-8e63fc88c602" d="M155.83495,21.57815v-.79856a11.03349,11.03349,0,0,1-2.82829,1.02315,13.17787,13.17787,0,0,1-2.81163.34106,6.6493,6.6493,0,0,1-4.45872-1.45572,4.19983,4.19983,0,0,1-1.71359-3.21926,5.22566,5.22566,0,0,1,2.18775-3.98453,9.11888,9.11888,0,0,1,6.04751-1.83839,22.44753,22.44753,0,0,1,3.577.33273V11.1634a1.48354,1.48354,0,0,0-.65719-1.24776,4.54118,4.54118,0,0,0-2.50386-.48249,17.06888,17.06888,0,0,0-3.92633.599,6.41338,6.41338,0,0,1-1.39749.21626,1.54609,1.54609,0,0,1-1.15628-.49078,1.73279,1.73279,0,0,1-.47416-1.25609,1.58574,1.58574,0,0,1,.16638-.74865,1.32377,1.32377,0,0,1,.46583-.50744,5.47313,5.47313,0,0,1,1.24776-.4575,23.4443,23.4443,0,0,1,2.57875-.55735,15.36173,15.36173,0,0,1,2.37905-.208,7.83822,7.83822,0,0,1,4.93288,1.37253,4.505,4.505,0,0,1,1.75523,3.75165v7.02078h.58224a2.59721,2.59721,0,0,1,1.75523.47416,1.59307,1.59307,0,0,1,.52407,1.23947A1.57375,1.57375,0,0,1,161.583,21.104a2.59721,2.59721,0,0,1-1.75523.47416Zm0-6.10575a19.822,19.822,0,0,0-3.7766-.3993,6.22322,6.22322,0,0,0-3.577,1.01485q-.93187.64882-.93166,1.31433a.90483.90483,0,0,0,.44923.78193,4.09941,4.09941,0,0,0,2.27924.549,9.52112,9.52112,0,0,0,2.78671-.48249,10.22357,10.22357,0,0,0,2.77005-1.3143Z"/></svg>